<svg width="334" height="123" viewBox="0 0 334 123" fill="none" xmlns="http://www.w3.org/2000/svg">
<path d="M0 122.178V103.593H18.929V122.178H0Z" fill="white"/>
<path d="M26.5431 122.178L64.7451 0H80.2325L118.435 122.178H105.873L72.4888 10.8412L39.105 122.178H26.5431ZM44.7838 85.5248L48.7416 74.1674H96.2361L100.194 85.5248H44.7838Z" fill="white"/>
<path d="M142.115 122.178V0H178.94C191.33 0 201.139 3.15484 208.366 9.46452C215.594 15.7742 219.208 24.5504 219.208 35.7931C219.208 41.7586 217.946 46.9784 215.422 51.4526C212.898 55.812 209.514 59.311 205.269 61.9496C201.139 64.4734 196.608 66.0222 191.674 66.5958L190.986 64.5308C198.787 64.875 204.867 66.7679 209.227 70.2095C213.701 73.6512 216.282 79.2151 216.971 86.9015L219.896 122.178H208.194L205.441 88.4502C205.097 84.6644 204.122 81.5096 202.516 78.9857C201.024 76.4618 198.615 74.6263 195.288 73.4791C192.076 72.2171 187.717 71.5862 182.21 71.5862H153.816V122.178H142.115ZM153.816 60.2287H178.768C187.831 60.2287 194.772 58.1638 199.59 54.0338C204.523 49.7891 206.99 43.7089 206.99 35.7931C206.99 27.7626 204.523 21.6823 199.59 17.5524C194.772 13.3077 187.831 11.1853 178.768 11.1853H153.816V60.2287Z" fill="white"/>
<path d="M259.236 83.2878V67.6283L317.228 0H331.511L259.236 83.2878ZM249.083 122.178V0H260.785V122.178H249.083ZM318.949 122.178L274.552 58.68L282.64 50.248L333.404 122.178H318.949Z" fill="white"/>
</svg>
