<svg width="1080" height="1080" viewBox="0 0 1080 1080" fill="none" xmlns="http://www.w3.org/2000/svg">
<rect width="1080" height="1080" rx="48" fill="#151515"/>
<g filter="url(#filter0_f_2_50)">
<path fill-rule="evenodd" clip-rule="evenodd" d="M502.553 360.274C502.552 360.275 502.551 360.276 502.551 360.278V655.329C502.551 662.2 496.981 667.771 490.109 667.771H441.362C434.491 667.771 428.92 662.2 428.92 655.329L428.92 485.71C428.92 474.002 414.221 468.775 406.83 477.854L233.638 690.592C227.02 698.721 232.805 710.89 243.287 710.89H523.11C528.268 710.89 532.892 707.707 534.733 702.888L687.527 303.001C689.368 298.183 693.991 295 699.149 295H773.315C778.461 295 783.076 298.168 784.926 302.969L964.484 769.086C967.624 777.236 961.608 786 952.874 786H887.818C882.556 786 877.863 782.69 876.098 777.733L835.583 663.982C833.817 659.025 829.124 655.715 823.862 655.715H645.887C640.598 655.715 635.888 659.058 634.142 664.05L594.417 777.665C592.672 782.657 587.961 786 582.673 786H120.442C113.57 786 108 780.43 108 773.558V715.403C108 712.487 109.024 709.664 110.893 707.426L376.383 389.623C383.15 381.522 377.39 369.204 366.834 369.204H142.361C135.49 369.204 129.92 363.634 129.92 356.762V307.442C129.92 300.57 135.49 295 142.361 295H490.112C496.984 295 502.554 300.57 502.554 307.442V360.27C502.554 360.271 502.554 360.273 502.553 360.274ZM804.639 574.123C807.278 582.169 801.284 590.443 792.817 590.443H677.623C669.139 590.443 663.143 582.138 665.814 574.085L728.691 384.473C729.673 381.51 732.443 379.51 735.564 379.51C738.694 379.51 741.47 381.521 742.445 384.495L804.639 574.123Z" fill="url(#paint0_radial_2_50)"/>
</g>
<path fill-rule="evenodd" clip-rule="evenodd" d="M502.553 360.274C502.552 360.275 502.551 360.276 502.551 360.278V655.329C502.551 662.2 496.981 667.771 490.109 667.771H441.362C434.491 667.771 428.92 662.2 428.92 655.329L428.92 485.71C428.92 474.002 414.221 468.775 406.83 477.854L233.638 690.592C227.02 698.721 232.805 710.89 243.287 710.89H523.11C528.268 710.89 532.892 707.707 534.733 702.888L687.527 303.001C689.368 298.183 693.991 295 699.149 295H773.315C778.461 295 783.076 298.168 784.926 302.969L964.484 769.086C967.624 777.236 961.608 786 952.874 786H887.818C882.556 786 877.863 782.69 876.098 777.733L835.583 663.982C833.817 659.025 829.124 655.715 823.862 655.715H645.887C640.598 655.715 635.888 659.058 634.142 664.05L594.417 777.665C592.672 782.657 587.961 786 582.673 786H120.442C113.57 786 108 780.43 108 773.558V715.403C108 712.487 109.024 709.664 110.893 707.426L376.383 389.623C383.15 381.522 377.39 369.204 366.834 369.204H142.361C135.49 369.204 129.92 363.634 129.92 356.762V307.442C129.92 300.57 135.49 295 142.361 295H490.112C496.984 295 502.554 300.57 502.554 307.442V360.27C502.554 360.271 502.554 360.273 502.553 360.274ZM804.639 574.123C807.278 582.169 801.284 590.443 792.817 590.443H677.623C669.139 590.443 663.143 582.138 665.814 574.085L728.691 384.473C729.673 381.51 732.443 379.51 735.564 379.51C738.694 379.51 741.47 381.521 742.445 384.495L804.639 574.123Z" fill="white"/>
<defs>
<filter id="filter0_f_2_50" x="75.7" y="262.7" width="921.928" height="555.6" filterUnits="userSpaceOnUse" color-interpolation-filters="sRGB">
<feFlood flood-opacity="0" result="BackgroundImageFix"/>
<feBlend mode="normal" in="SourceGraphic" in2="BackgroundImageFix" result="shape"/>
<feGaussianBlur stdDeviation="16.15" result="effect1_foregroundBlur_2_50"/>
</filter>
<radialGradient id="paint0_radial_2_50" cx="0" cy="0" r="1" gradientUnits="userSpaceOnUse" gradientTransform="translate(539.5 540.5) rotate(90) scale(405.587 712.876)">
<stop stop-color="white"/>
<stop offset="1" stop-color="white" stop-opacity="0"/>
</radialGradient>
</defs>
</svg>
