<svg width="1357" height="123" viewBox="0 0 1357 123" fill="none" xmlns="http://www.w3.org/2000/svg">
<path d="M32.8675 122.178L-0.000222853 -9.10981e-05H12.7339L40.267 106.691L66.7676 -9.10981e-05H80.5342L107.035 106.691L134.568 -9.10981e-05H147.302L114.434 122.178H99.2912L73.6509 20.3056L48.0107 122.178H32.8675ZM178.128 122.178V-9.10981e-05H189.829V59.0241L184.323 54.722H260.383L254.876 59.0241V-9.10981e-05H266.578V122.178H254.876V61.6053L260.383 66.0794H184.323L189.829 61.6053V122.178H178.128ZM296.762 122.178L341.331 -9.10981e-05H356.819L401.216 122.178H388.482L375.404 85.5247H322.574L309.496 122.178H296.762ZM326.532 74.1673H371.446L349.075 10.4969L326.532 74.1673ZM441.782 122.178V11.3573H402.547V-9.10981e-05H492.718V11.3573H453.483V122.178H441.782ZM603.337 122.178V11.3573H564.102V-9.10981e-05H654.274V11.3573H615.039V122.178H603.337ZM679.149 122.178V-9.10981e-05H690.85V59.0241L685.344 54.722H761.404L755.897 59.0241V-9.10981e-05H767.599V122.178H755.897V61.6053L761.404 66.0794H685.344L690.85 61.6053V122.178H679.149ZM808.997 122.178V-9.10981e-05H884.197V11.3573H820.698V55.4104H882.132V66.5957H820.698V110.821H885.573V122.178H808.997ZM970.027 122.178V105.486H986.375V122.178H970.027ZM1009.87 122.178L1054.44 -9.10981e-05H1069.92L1114.32 122.178H1101.59L1088.51 85.5247H1035.68L1022.6 122.178H1009.87ZM1039.64 74.1673H1084.55L1062.18 10.4969L1039.64 74.1673ZM1143.2 122.178V-9.10981e-05H1187.94C1196.66 -9.10981e-05 1204.06 1.49129 1210.14 4.47405C1216.33 7.34208 1221.1 11.472 1224.42 16.864C1227.75 22.2559 1229.41 28.7376 1229.41 36.3092C1229.41 41.9306 1228.09 46.921 1225.45 51.2804C1222.93 55.6398 1219.55 59.1388 1215.3 61.7774C1211.06 64.416 1206.47 65.9074 1201.54 66.2515L1200.67 64.7028C1208.71 64.7028 1214.9 66.5383 1219.26 70.2094C1223.73 73.7658 1226.31 79.3871 1227 87.0735L1230.1 122.178H1218.23L1215.3 88.106C1214.84 82.4846 1212.84 78.3546 1209.28 75.716C1205.72 72.9627 1199.99 71.5861 1192.07 71.5861H1154.9V122.178H1143.2ZM1154.9 60.2287H1189.83C1198.21 60.2287 1204.8 58.1637 1209.62 54.0337C1214.56 49.789 1217.02 43.8235 1217.02 36.1372C1217.02 28.1067 1214.56 21.9691 1209.62 17.7244C1204.69 13.4797 1197.41 11.3573 1187.77 11.3573H1154.9V60.2287ZM1266.83 122.178V-9.10981e-05H1278.53V65.3911L1338.42 -9.10981e-05H1353.21L1304.69 53.0012L1356.66 122.178H1342.55L1296.94 61.6053L1278.53 81.5668V122.178H1266.83Z" fill="black"/>
</svg>
