<svg width="1428" height="189" viewBox="0 0 1428 189" fill="none" xmlns="http://www.w3.org/2000/svg">
<path d="M1256.99 189V0H1284.5V93.9676L1386.56 0H1421.44L1332.49 81.9887L1427.52 189H1393.92L1313.94 99.0253L1284.5 125.911V189H1256.99Z" fill="white"/>
<path d="M1021.12 189V0H1107.18C1123.18 0 1136.94 2.30704 1148.45 6.92113C1159.97 11.5352 1168.82 18.1901 1175.01 26.8859C1181.41 35.4042 1184.61 45.5197 1184.61 57.2324C1184.61 65.7507 1182.15 73.3817 1177.25 80.1253C1172.56 86.6915 1166.48 91.9268 1159.01 95.831C1151.55 99.7352 1143.76 101.865 1135.66 102.22L1133.74 99.8239C1147.6 99.8239 1158.48 102.486 1166.37 107.81C1174.48 113.134 1179.17 121.652 1180.45 133.365L1186.85 189H1159.01L1153.25 135.761C1152.4 127.952 1148.99 122.185 1143.01 118.458C1137.26 114.731 1127.76 112.868 1114.54 112.868H1048.63V189H1021.12ZM1048.63 90.507H1110.7C1124.56 90.507 1135.55 87.5789 1143.65 81.7225C1151.76 75.8662 1155.81 67.5253 1155.81 56.7C1155.81 45.6972 1151.65 37.2676 1143.33 31.4113C1135.02 25.3775 1122.96 22.3606 1107.18 22.3606H1048.63V90.507Z" fill="white"/>
<path d="M765.02 189L846.926 0H884.039L965.945 189H935.87L913.154 135.228H817.811L795.095 189H765.02ZM827.089 112.868H903.876L865.483 19.9648L827.089 112.868Z" fill="white"/>
<path d="M682.739 189V158.92H718.893V189H682.739Z" fill="white"/>
<path d="M434.729 189V0H473.763L586.063 166.107V0H613.579V189H572.626L462.245 26.0873V189H434.729Z" fill="white"/>
<path d="M219.479 189V0H362.175V22.3606H246.995V83.3197H358.335V105.148H246.995V166.639H364.734V189H219.479Z" fill="white"/>
<path d="M0 189V165.575L121.579 22.3606H4.15928V0H152.934V23.4253L31.3546 166.639H156.133V189H0Z" fill="white"/>
</svg>








