<svg width="32" height="32" viewBox="0 0 32 32" fill="none" xmlns="http://www.w3.org/2000/svg">
  <path d="M16 4C9.373 4 4 9.373 4 16C4 22.627 9.373 28 16 28C22.627 28 28 22.627 28 16C28 9.373 22.627 4 16 4Z" fill="#06B6D4"/>
  <path d="M16 6C21.523 6 26 10.477 26 16C26 21.523 21.523 26 16 26C10.477 26 6 21.523 6 16C6 10.477 10.477 6 16 6Z" fill="white"/>
  <path d="M16 8C19.314 8 22 10.686 22 14C22 17.314 19.314 20 16 20C12.686 20 10 17.314 10 14C10 10.686 12.686 8 16 8Z" fill="#06B6D4"/>
</svg>